<?xml version="1.0" encoding="UTF-8"?>
<svg width="1280px" height="1080px" viewBox="0 0 1280 1080" version="1.1" xmlns="http://www.w3.org/2000/svg" xmlns:xlink="http://www.w3.org/1999/xlink">
    <title>Small@1x</title>
    <g id="Small" stroke="none" stroke-width="1" fill="none" fill-rule="evenodd">
        <rect fill="#FFFFFF" x="0" y="0" width="1280" height="1080"></rect>
        <g id="Group" transform="translate(671.163, 539.5493) rotate(-9) translate(-671.163, -539.5493)translate(65.9346, 245.1697)">
            <path d="M35.3576837,251.498065 C201.964502,445.548035 357.058732,534.593174 500.640373,518.633482 C600.193393,507.567753 708.50835,490.559001 888.173397,381.713266 C941.146204,349.620969 1007.8743,267.200803 1088.35768,134.452768" id="Path-6" stroke="#FFF10A" stroke-width="90"></path>
            <path d="M64.9811071,259.019522 C300.320974,338.923212 463.872466,374.262395 555.635582,365.037071 C914.169812,328.992146 1094.98111,155.469375 1094.98111,155.469375" id="Path-5" stroke="#FFF10A" stroke-width="90"></path>
            <path d="M-1.0689403e-13,238.005006 C269.522418,292.783546 474.294041,312.551421 614.314868,297.30863 C754.335696,282.065839 903.897406,223.724924 1063,122.285885" id="Path" stroke="#443C3C" stroke-width="13"></path>
            <path d="M1085.77241,141.652147 C852.741965,328.707216 672.195362,428.243365 544.132603,440.260592 C416.069844,452.277819 237.283113,386.461 7.77241002,242.810134" id="Path-2" stroke="#443C3C" stroke-width="13"></path>
            <path d="M8.25041861,244.06562 C36.1940667,345.109855 66.1173584,408.810995 98.0202936,435.16904 C275.141762,581.505912 476.927106,595.038991 579.454325,586.930937 C662.210301,580.386432 818.144532,549.20467 939.15936,435.16904 C985.438412,391.559005 1043.13543,298.755703 1112.25042,156.759133" id="Path-3" stroke="#443C3C" stroke-width="13"></path>
            <line x1="1210.45694" y1="-4.29948429e-14" x2="1085.45694" y2="145" id="Path-4" stroke="#483737" stroke-width="52"></line>
        </g>
    </g>
</svg>